<svg width="16" height="16" viewBox="0 0 16 16" fill="none" xmlns="http://www.w3.org/2000/svg">
<path fill-rule="evenodd" clip-rule="evenodd" d="M13.9267 4.1077H8.28216C7.95935 2.98856 6.91242 2.1665 5.67424 2.1665C4.43603 2.1665 3.3891 2.98856 3.06632 4.1077H2.07327C1.66462 4.10767 1.33334 4.43402 1.33334 4.83653C1.33334 5.23904 1.66462 5.56542 2.07327 5.56542H3.06626C3.38908 6.68456 4.43598 7.50661 5.67419 7.50661C6.91237 7.50661 7.95932 6.68456 8.28211 5.56542H13.9267C14.3354 5.56542 14.6667 5.23907 14.6667 4.83656C14.6667 4.43405 14.3353 4.1077 13.9267 4.1077ZM5.67475 6.04892C4.9961 6.04892 4.44402 5.50506 4.44402 4.83659C4.44402 4.16811 4.9961 3.62425 5.67475 3.62425C6.3534 3.62425 6.90548 4.16811 6.90548 4.83659C6.90548 5.50506 6.3534 6.04892 5.67475 6.04892Z" fill="#5A6770"/>
<path fill-rule="evenodd" clip-rule="evenodd" d="M13.9268 10.4343H12.932C12.6091 9.31512 11.5622 8.49306 10.324 8.49306C9.08583 8.49306 8.0389 9.31512 7.71612 10.4343H2.07327C1.66462 10.4343 1.33334 10.7606 1.33334 11.1631C1.33334 11.5657 1.66462 11.892 2.07327 11.892H7.71612C8.03893 13.0111 9.08583 13.8332 10.324 13.8332C11.5622 13.8332 12.6092 13.0111 12.932 11.892H13.9268C14.3354 11.892 14.6667 11.5656 14.6667 11.1631C14.6667 10.7606 14.3354 10.4343 13.9268 10.4343ZM10.3238 12.3756C9.64519 12.3756 9.09311 11.8317 9.09311 11.1632C9.09311 10.4947 9.64522 9.95091 10.3238 9.95091C11.0025 9.95091 11.5546 10.4948 11.5546 11.1632C11.5546 11.8317 11.0025 12.3756 10.3238 12.3756Z" fill="#5A6770"/>
</svg>
